<svg width="16" height="17" viewBox="0 0 16 17" fill="none" xmlns="http://www.w3.org/2000/svg">
<path d="M3.2 0.5C2.14125 0.5 1.28 1.36125 1.28 2.42C1.28 3.47875 2.14125 4.34 3.2 4.34C4.25875 4.34 5.12 3.47875 5.12 2.42C5.12 1.36125 4.25875 0.5 3.2 0.5ZM11.84 0.5C10.7812 0.5 9.92 1.36125 9.92 2.42C9.92 3.47875 10.7812 4.34 11.84 4.34C12.8988 4.34 13.76 3.47875 13.76 2.42C13.76 1.36125 12.8988 0.5 11.84 0.5ZM1.76 4.66C0.79 4.66 0 5.45 0 6.42V11.06C0 11.4137 0.2875 11.7 0.64 11.7C0.9925 11.7 1.28 11.4137 1.28 11.06V7.22C1.28 7.13375 1.35375 7.06 1.44 7.06C1.52625 7.06 1.6 7.13375 1.6 7.22V15.64C1.6 16.14 1.86875 16.5 2.37 16.5C2.84375 16.5 3.2 16.1325 3.2 15.64V11.28C3.2 11.1912 3.27125 11.12 3.36 11.12C3.44875 11.12 3.52 11.1912 3.52 11.28V15.73C3.52125 15.7325 3.52875 15.7275 3.53 15.73C3.57375 16.1725 3.9075 16.5 4.35 16.5C4.85 16.5 5.12 16.14 5.12 15.64V7.22C5.12 7.13375 5.19375 7.06 5.28 7.06C5.36625 7.06 5.44 7.13375 5.44 7.22V11.06C5.44 11.4137 5.7275 11.7 6.08 11.7C6.4325 11.7 6.72 11.4137 6.72 11.06V6.42C6.72 5.45 5.93 4.66 4.96 4.66H1.76ZM10.24 4.66C9.795 4.63 9.04125 4.9475 8.74 5.87L7.44 9.9C7.33 10.2362 7.515 10.6 7.85 10.71C8.18625 10.82 8.55 10.6363 8.66 10.3L9.64 7.33C9.66625 7.2475 9.7575 7.2025 9.84 7.23C9.915 7.25375 9.9625 7.33375 9.95 7.41C9.94375 7.42125 9.93375 7.4275 9.93 7.44L8.88 10.58L8.54 11.59L8.57 11.54C8.5375 11.6962 8.525 11.8825 8.65 12.07C8.66125 12.0875 8.685 12.105 8.7 12.12C8.78375 12.2025 8.9525 12.34 9.18 12.34H9.92V15.64C9.92 16.14 10.1887 16.5 10.69 16.5C11.1637 16.5 11.52 16.1325 11.52 15.64V12.34H11.84V15.73C11.8413 15.7325 11.8487 15.7275 11.85 15.73C11.8937 16.1725 12.2275 16.5 12.67 16.5C13.17 16.5 13.44 16.14 13.44 15.64V12.34H14.18C14.4075 12.34 14.5775 12.2025 14.66 12.12C14.675 12.105 14.6888 12.0875 14.7 12.07C14.8287 11.8762 14.815 11.68 14.78 11.52L14.82 11.59L13.97 9.08L13.42 7.44C13.4175 7.4325 13.4137 7.4275 13.41 7.42C13.39 7.34 13.44 7.255 13.52 7.23C13.6025 7.2025 13.6937 7.2475 13.72 7.33L14.71 10.3C14.82 10.6363 15.175 10.82 15.51 10.71C15.845 10.6 16.03 10.2362 15.92 9.9L14.62 5.87C14.3188 4.9475 13.565 4.63 13.12 4.66H10.24Z" fill="#757475"/>
</svg>
