<svg width="15" height="15" viewBox="0 0 15 15" fill="none" xmlns="http://www.w3.org/2000/svg">
<path d="M11.99 14.5401C11.985 14.5401 11.98 14.5401 11.975 14.5401C9.57002 14.4613 6.75252 12.1301 4.81127 10.1876C2.86752 8.24506 0.536271 5.42631 0.461271 3.03256C0.433771 2.19256 2.49502 0.698806 2.51627 0.683806C3.05127 0.311306 3.64502 0.443806 3.88877 0.781306C4.05377 1.01006 5.61627 3.37756 5.78627 3.64631C5.96252 3.92506 5.93627 4.34006 5.71627 4.75631C5.59502 4.98756 5.19252 5.69506 5.00377 6.02506C5.20752 6.31506 5.74627 7.02631 6.85877 8.13881C7.97252 9.25131 8.68252 9.79131 8.97377 9.99506C9.30377 9.80631 10.0113 9.40381 10.2425 9.28256C10.6525 9.06506 11.065 9.03756 11.3463 9.21006C11.6338 9.38631 13.995 10.9563 14.2125 11.1076C14.395 11.2363 14.5125 11.4563 14.5363 11.7126C14.5588 11.9713 14.4788 12.2451 14.3125 12.4838C14.2988 12.5038 12.8225 14.5401 11.99 14.5401Z" fill="#757475"/>
</svg>
